<svg width="25" height="26" viewBox="0 0 25 26" fill="none" xmlns="http://www.w3.org/2000/svg">
<path d="M24.1699 23.2637L18.418 17.5117C19.8438 15.7734 20.7031 13.5469 20.7031 11.1201C20.7031 5.55371 16.1865 1.03711 10.6201 1.03711C5.04883 1.03711 0.537109 5.55371 0.537109 11.1201C0.537109 16.6865 5.04883 21.2031 10.6201 21.2031C13.0469 21.2031 15.2686 20.3486 17.0068 18.9229L22.7588 24.6699C23.1494 25.0605 23.7793 25.0605 24.1699 24.6699C24.5605 24.2842 24.5605 23.6494 24.1699 23.2637ZM10.6201 19.1963C6.16211 19.1963 2.53906 15.5732 2.53906 11.1201C2.53906 6.66699 6.16211 3.03906 10.6201 3.03906C15.0732 3.03906 18.7012 6.66699 18.7012 11.1201C18.7012 15.5732 15.0732 19.1963 10.6201 19.1963Z" fill="#6583A8"/>
</svg>
