<svg width="100" height="100" viewBox="0 0 100 100" fill="none" xmlns="http://www.w3.org/2000/svg">
<path d="M92.2281 39.3969C94.0388 37.6318 94.6781 35.0414 93.8969 32.6365C93.1154 30.2316 91.0756 28.5119 88.5732 28.1484L66.6924 24.9689C66.2629 24.9066 65.8916 24.6369 65.6994 24.2475L55.914 4.42031C54.7951 2.15273 52.5291 0.744141 50.0004 0.744141C47.4717 0.744141 45.2056 2.15273 44.0867 4.42031L34.3013 24.2477C34.109 24.6369 33.7379 24.9066 33.3082 24.9691L11.4277 28.1484C8.92537 28.5119 6.88572 30.2316 6.10408 32.6365C5.32244 35.0414 5.96189 37.6318 7.77283 39.3969L23.6058 54.8303C23.9166 55.1334 24.0586 55.5699 23.9851 55.9979L20.2474 77.79C19.8201 80.2824 20.8252 82.7537 22.8709 84.24C24.9166 85.7268 27.5783 85.9188 29.8162 84.7424L49.3867 74.4535C49.7711 74.2514 50.2299 74.2514 50.6144 74.4535L70.1851 84.7424C71.1586 85.2541 72.2119 85.507 73.2601 85.5068C74.6215 85.5068 75.9742 85.0803 77.1299 84.2398C79.1756 82.7533 80.1808 80.2818 79.7533 77.7898L76.0156 55.9977C75.9424 55.5697 76.0842 55.1332 76.3949 54.8301L92.2281 39.3969ZM70.8162 56.8898L74.5539 78.6824C74.6789 79.4117 74.2287 79.8275 74.0293 79.9723C73.8297 80.1168 73.2949 80.417 72.6402 80.0725L53.0695 69.7836C52.1088 69.2787 51.0549 69.026 50.0008 69.026C48.9467 69.026 47.8926 69.2787 46.932 69.7834L27.3615 80.0721C26.7064 80.4164 26.1719 80.1166 25.9724 79.9719C25.773 79.8271 25.3226 79.4113 25.4478 78.682L29.1855 56.8898C29.5525 54.7502 28.8437 52.5682 27.2888 51.0527L11.4558 35.6193C10.926 35.1025 11.0459 34.5016 11.1222 34.2672C11.1982 34.0326 11.4547 33.4758 12.1869 33.3695L34.0672 30.19C36.2154 29.8779 38.0719 28.5295 39.0328 26.5824L48.8181 6.75508C49.1457 6.0916 49.7543 6.01992 50.001 6.01992C50.2472 6.01992 50.8558 6.09141 51.1836 6.75508V6.75527L60.9689 26.5826C61.9297 28.5297 63.7859 29.8781 65.9342 30.1902L87.8148 33.3697C88.5471 33.476 88.8033 34.0328 88.8795 34.2674C88.9556 34.502 89.0758 35.1031 88.5457 35.6195L72.7127 51.0529C71.158 52.5682 70.4492 54.7502 70.8162 56.8898Z" fill="#FFD066"/>
<path d="M80.817 4.41895C79.6381 3.5627 77.9887 3.82403 77.1324 5.00254L74.3322 8.85645C73.476 10.035 73.7371 11.6848 74.9158 12.541C75.3844 12.8811 75.9268 13.0449 76.4643 13.0449C77.2801 13.0449 78.0844 12.6678 78.6004 11.9576L81.4006 8.10372C82.2568 6.92501 81.9957 5.2752 80.817 4.41895Z" fill="#FFD066"/>
<path d="M25.6563 8.84079L22.8561 4.98688C22 3.80876 20.3504 3.54743 19.1715 4.40329C17.993 5.25954 17.7316 6.90934 18.5879 8.08786L21.3881 11.9418C21.9043 12.6525 22.7086 13.0295 23.5246 13.0295C24.0623 13.0295 24.6049 12.8656 25.0729 12.5254C26.2514 11.6693 26.5127 10.0195 25.6563 8.84079Z" fill="#FFD066"/>
<path d="M9.67809 59.9275C9.22789 58.5421 7.7398 57.7837 6.35406 58.2339L1.8234 59.7062C0.437656 60.1564 -0.320352 61.6449 0.129843 63.0302C0.491953 64.1453 1.52613 64.8539 2.63805 64.8539C2.90816 64.8539 3.18297 64.8119 3.45387 64.7238L7.98453 63.2515C9.37008 62.8013 10.1283 61.3132 9.67809 59.9275Z" fill="#FFD066"/>
<path d="M50.0009 89.2159C48.5441 89.2159 47.363 90.397 47.363 91.8538V96.6179C47.363 98.0747 48.5441 99.2558 50.0009 99.2558C51.4578 99.2558 52.6388 98.0747 52.6388 96.6179V91.8538C52.6388 90.3968 51.458 89.2159 50.0009 89.2159Z" fill="#FFD066"/>
<path d="M98.1766 59.7098L93.6459 58.2376C92.2607 57.7878 90.7721 58.5456 90.3219 59.9313C89.8717 61.3171 90.6297 62.8052 92.0154 63.2554L96.5461 64.7276C96.817 64.8155 97.0916 64.8573 97.3617 64.8573C98.4738 64.8573 99.508 64.1485 99.8701 63.0337C100.32 61.6481 99.5621 60.16 98.1766 59.7098Z" fill="#FFD066"/>
<path d="M50 4L63.4485 29.2L91.8465 34.0578L71.7602 54.49L75.8625 82.6922L50 70.12L24.1374 82.6922L28.2398 54.49L8.15351 34.0578L36.5515 29.2L50 4Z" fill="#FFD066"/>
</svg>
